<?xml version="1.0" standalone="no"?>
<!DOCTYPE svg PUBLIC "-//W3C//DTD SVG 20010904//EN"
 "http://www.w3.org/TR/2001/REC-SVG-20010904/DTD/svg10.dtd">
<svg version="1.0" xmlns="http://www.w3.org/2000/svg"
 width="1224.000000pt" height="804.000000pt" viewBox="0 0 1224.000000 804.000000"
 preserveAspectRatio="xMidYMid meet">

<g transform="translate(0.000000,804.000000) scale(0.100000,-0.100000)"
fill="#000000" stroke="none">
<path d="M4833 7670 c-1 -85 0 -87 12 -17 4 28 11 37 25 37 17 0 20 -7 20 -50
0 -28 5 -50 10 -50 7 0 10 22 8 58 l-3 57 -32 -1 c-27 -2 -32 2 -36 25 -2 14
-4 -12 -4 -59z"/>
<path d="M5470 7672 l0 -79 32 -1 c44 -1 58 13 58 58 0 42 -20 65 -50 57 -16
-4 -20 0 -20 19 0 13 -4 24 -10 24 -6 0 -10 -33 -10 -78z m65 -22 c0 -28 -4
-35 -20 -35 -13 0 -21 8 -23 23 -5 34 5 54 25 50 13 -2 18 -13 18 -38z"/>
<path d="M6150 7740 c0 -5 5 -10 10 -10 6 0 10 5 10 10 0 6 -4 10 -10 10 -5 0
-10 -4 -10 -10z"/>
<path d="M4934 7693 c3 -10 10 -37 16 -60 13 -50 24 -54 38 -15 l10 27 7 -28
c11 -40 27 -29 42 29 15 59 16 64 4 64 -6 0 -14 -19 -19 -42 -9 -37 -11 -40
-17 -20 -4 12 -11 22 -16 22 -6 0 -13 -10 -18 -22 -8 -21 -10 -19 -20 20 -7
23 -16 42 -22 42 -6 0 -8 -8 -5 -17z"/>
<path d="M5221 7696 c-17 -20 -4 -43 31 -55 36 -13 28 -31 -13 -31 -16 0 -29
-4 -29 -10 0 -5 15 -10 34 -10 62 0 72 49 14 69 -34 12 -29 31 8 31 13 0 24 5
24 10 0 15 -56 12 -69 -4z"/>
<path d="M5342 7653 l3 -58 43 -1 42 -2 0 59 c0 33 -4 59 -10 59 -5 0 -10 -15
-10 -34 0 -47 -9 -66 -31 -66 -16 0 -19 8 -19 50 0 28 -5 50 -10 50 -7 0 -10
-22 -8 -57z"/>
<path d="M5592 7648 l1 -63 6 49 c8 69 31 74 31 7 0 -28 5 -51 10 -51 6 0 10
23 10 50 0 80 22 64 34 -25 2 -16 3 -3 2 30 l-1 60 -47 3 -48 2 2 -62z"/>
<path d="M5740 7700 c0 -5 7 -10 15 -10 11 0 15 -11 15 -40 0 -33 -3 -40 -20
-40 -11 0 -20 -4 -20 -10 0 -5 20 -10 45 -10 25 0 45 5 45 10 0 6 -9 10 -20
10 -17 0 -20 7 -20 50 0 43 -3 50 -20 50 -11 0 -20 -4 -20 -10z"/>
<path d="M5867 7703 c-4 -3 -7 -16 -7 -29 0 -16 9 -25 30 -33 41 -14 38 -31
-6 -31 -21 0 -33 -4 -29 -10 10 -16 61 -12 76 6 16 20 1 48 -30 52 -30 5 -27
32 4 32 14 0 25 5 25 10 0 11 -53 14 -63 3z"/>
<path d="M5991 7696 c-17 -20 -4 -43 31 -55 36 -13 28 -31 -13 -31 -16 0 -29
-4 -29 -10 0 -5 15 -10 34 -10 62 0 72 49 14 69 -34 12 -29 31 8 31 13 0 24 5
24 10 0 15 -56 12 -69 -4z"/>
<path d="M6120 7700 c0 -5 7 -10 15 -10 11 0 15 -11 15 -40 0 -28 -4 -40 -14
-40 -8 0 -18 -4 -21 -10 -4 -6 13 -10 44 -10 28 0 51 5 51 10 0 6 -9 10 -20
10 -17 0 -20 7 -20 50 0 47 -2 50 -25 50 -14 0 -25 -4 -25 -10z"/>
<path d="M6246 7694 c-34 -34 -13 -104 32 -104 36 0 52 17 52 53 0 61 -47 89
-84 51z m59 -44 c0 -28 -4 -36 -22 -38 -14 -2 -23 3 -28 17 -10 34 4 63 28 59
18 -2 22 -10 22 -38z"/>
<path d="M6371 7645 c1 -61 3 -60 14 8 4 28 11 37 25 37 17 0 20 -7 20 -50 0
-28 5 -50 10 -50 7 0 10 22 8 58 l-3 57 -37 0 -38 1 1 -61z"/>
<path d="M5060 7560 c0 -6 28 -10 65 -10 37 0 65 4 65 10 0 6 -28 10 -65 10
-37 0 -65 -4 -65 -10z"/>
<path d="M3530 5735 l0 -1755 2790 0 2790 0 0 1755 0 1755 -2790 0 -2790 0 0
-1755z m5550 5 l0 -1720 -2755 0 -2755 0 0 1720 0 1720 2755 0 2755 0 0 -1720z"/>
<path d="M3770 7280 c0 -5 5 -10 10 -10 6 0 10 5 10 10 0 6 -4 10 -10 10 -5 0
-10 -4 -10 -10z"/>
<path d="M3930 7267 c0 -18 -5 -22 -32 -22 -26 0 -34 -5 -42 -27 -6 -18 -6
-38 0 -55 8 -24 15 -28 52 -29 l42 -2 0 79 c0 46 -4 79 -10 79 -5 0 -10 -10
-10 -23z m-7 -57 c8 -31 -3 -60 -24 -60 -24 0 -33 21 -25 55 8 30 41 34 49 5z"/>
<path d="M7810 7210 c0 -47 4 -80 10 -80 6 0 10 13 10 28 0 23 6 30 33 37 25
8 33 16 35 40 4 34 -18 55 -60 55 l-28 0 0 -80z m54 54 c32 -12 13 -54 -25
-54 -5 0 -9 14 -9 30 0 31 6 35 34 24z"/>
<path d="M7930 7210 c0 -47 4 -80 10 -80 6 0 10 16 10 35 0 19 4 35 9 35 5 0
19 -16 31 -35 12 -19 28 -35 36 -35 17 0 14 7 -24 58 l-25 33 28 29 c40 42 22
51 -20 10 l-35 -34 0 32 c0 18 -4 32 -10 32 -6 0 -10 -33 -10 -80z"/>
<path d="M3740 7240 c0 -5 7 -10 15 -10 11 0 15 -11 15 -40 0 -28 -4 -40 -14
-40 -8 0 -18 -4 -21 -10 -4 -6 13 -10 44 -10 28 0 51 5 51 10 0 6 -9 10 -20
10 -17 0 -20 7 -20 50 0 47 -2 50 -25 50 -14 0 -25 -4 -25 -10z"/>
<path d="M4978 6893 c738 -2 1946 -2 2685 0 738 1 134 2 -1343 2 -1477 0
-2081 -1 -1342 -2z"/>
<path d="M4003 5903 c13 -4 17 -15 17 -59 0 -31 5 -64 10 -75 11 -20 50 -27
50 -9 0 6 -6 10 -14 10 -19 0 -26 22 -26 86 0 53 -1 54 -27 53 -17 -1 -21 -3
-10 -6z"/>
<path d="M4410 5900 c0 -5 5 -10 10 -10 6 0 10 5 10 10 0 6 -4 10 -10 10 -5 0
-10 -4 -10 -10z"/>
<path d="M4270 5885 c0 -8 -7 -15 -15 -15 -8 0 -15 -4 -15 -10 0 -5 7 -10 15
-10 11 0 15 -12 15 -44 0 -31 5 -46 16 -50 24 -9 44 -7 44 4 0 6 -9 10 -20 10
-17 0 -20 7 -20 40 0 33 3 40 20 40 11 0 20 5 20 10 0 6 -9 10 -20 10 -11 0
-20 7 -20 15 0 8 -4 15 -10 15 -5 0 -10 -7 -10 -15z"/>
<path d="M3741 5856 c-17 -20 -4 -43 31 -55 36 -13 28 -31 -13 -31 -16 0 -29
-4 -29 -10 0 -5 15 -10 34 -10 62 0 72 49 14 69 -34 12 -29 31 8 31 13 0 24 5
24 10 0 15 -56 12 -69 -4z"/>
<path d="M3866 5854 c-34 -34 -13 -104 32 -104 36 0 52 17 52 53 0 61 -47 89
-84 51z m59 -44 c0 -28 -4 -36 -22 -38 -14 -2 -23 3 -28 17 -10 34 4 63 28 59
18 -2 22 -10 22 -38z"/>
<path d="M4118 5864 c-11 -10 -10 -58 2 -88 8 -21 15 -25 45 -24 l35 1 0 59
c0 37 -4 57 -10 53 -5 -3 -10 -26 -10 -51 0 -37 -3 -44 -20 -44 -18 0 -23 11
-33 88 -1 8 -5 10 -9 6z"/>
<path d="M4390 5860 c0 -5 5 -10 10 -10 6 0 10 -18 10 -40 0 -29 -4 -40 -15
-40 -8 0 -15 -4 -15 -10 0 -5 20 -10 45 -10 25 0 45 5 45 10 0 6 -9 10 -20 10
-17 0 -20 7 -20 50 0 43 -3 50 -20 50 -11 0 -20 -4 -20 -10z"/>
<path d="M4510 5854 c-8 -8 -13 -28 -13 -44 0 -16 5 -36 13 -44 15 -19 51 -21
68 -4 16 16 16 80 0 96 -17 17 -53 15 -68 -4z m55 -44 c0 -29 -4 -36 -22 -38
-20 -3 -23 1 -23 31 0 38 7 49 30 45 10 -2 15 -15 15 -38z"/>
<path d="M4630 5808 c0 -69 18 -78 22 -10 3 39 6 47 23 47 17 0 20 -8 23 -47
4 -58 22 -64 22 -7 0 60 -14 79 -55 77 l-35 -1 0 -59z"/>
<path d="M4570 5494 c0 -15 -4 -23 -11 -19 -5 4 -21 4 -34 1 -28 -7 -41 -50
-26 -89 9 -23 16 -27 51 -25 l40 1 0 79 c0 45 -4 78 -10 78 -5 0 -10 -12 -10
-26z m-5 -54 c9 -29 -3 -60 -25 -60 -22 0 -32 23 -24 56 8 29 40 32 49 4z"/>
<path d="M4270 5495 c0 -8 -7 -15 -15 -15 -8 0 -15 -4 -15 -10 0 -5 7 -10 15
-10 11 0 15 -12 15 -44 0 -31 5 -46 16 -50 24 -9 44 -7 44 4 0 6 -9 10 -20 10
-17 0 -20 7 -20 40 0 33 3 40 20 40 11 0 20 5 20 10 0 6 -9 10 -20 10 -11 0
-20 7 -20 15 0 8 -4 15 -10 15 -5 0 -10 -7 -10 -15z"/>
<path d="M4910 5495 c0 -8 -7 -15 -15 -15 -8 0 -15 -4 -15 -10 0 -5 7 -10 15
-10 11 0 15 -12 15 -44 0 -31 5 -46 16 -50 24 -9 44 -7 44 4 0 6 -9 10 -20 10
-17 0 -20 7 -20 40 0 33 3 40 20 40 11 0 20 5 20 10 0 6 -9 10 -20 10 -11 0
-20 7 -20 15 0 8 -4 15 -10 15 -5 0 -10 -7 -10 -15z"/>
<path d="M3747 5462 c-21 -23 -22 -66 -1 -86 17 -18 74 -22 74 -6 0 6 -13 10
-30 10 -23 0 -31 5 -36 25 -8 33 13 58 43 52 15 -3 22 0 20 7 -6 19 -52 18
-70 -2z"/>
<path d="M3874 5471 c-9 -9 -3 -111 6 -111 6 0 10 11 10 24 0 46 18 76 45 76
14 0 25 5 25 10 0 10 -76 10 -86 1z"/>
<path d="M3997 5462 c-22 -24 -22 -66 -1 -87 18 -18 75 -17 81 1 2 7 -8 9 -28
6 -20 -3 -34 0 -40 9 -15 24 -10 29 31 29 32 0 40 4 40 18 0 41 -54 57 -83 24z
m58 -12 c4 -6 -5 -10 -19 -10 -14 0 -26 5 -26 10 0 6 9 10 19 10 11 0 23 -4
26 -10z"/>
<path d="M4120 5470 c0 -5 14 -10 30 -10 39 0 39 -19 0 -27 -21 -4 -32 -13
-36 -29 -9 -35 2 -44 53 -42 l45 2 -5 49 c-2 27 -11 53 -18 58 -19 12 -69 11
-69 -1z m58 -67 c-4 -22 -48 -31 -48 -10 0 19 10 27 32 27 13 0 18 -6 16 -17z"/>
<path d="M4382 5468 c-16 -16 -16 -80 0 -96 14 -14 78 -16 78 -3 0 6 -15 11
-32 13 -22 2 -34 9 -36 21 -3 14 4 17 37 17 29 0 41 4 41 14 0 37 -61 61 -88
34z m58 -18 c0 -5 -12 -10 -26 -10 -14 0 -23 4 -19 10 3 6 15 10 26 10 10 0
19 -4 19 -10z"/>
<path d="M4767 5473 c-14 -14 -6 -19 22 -15 42 6 49 -16 7 -24 -69 -12 -55
-75 15 -72 l39 1 0 47 c0 25 -5 51 -12 58 -13 13 -60 16 -71 5z m63 -57 c0
-18 -15 -36 -30 -36 -22 0 -34 15 -25 30 6 9 55 15 55 6z"/>
<path d="M4610 5330 c0 -6 26 -10 59 -10 33 0 63 5 66 10 4 6 -18 10 -59 10
-37 0 -66 -4 -66 -10z"/>
<path d="M4120 5050 c0 -47 4 -80 10 -80 6 0 10 11 10 24 0 37 13 38 35 5 11
-16 26 -29 34 -29 9 0 4 12 -14 36 l-27 35 23 25 c28 29 12 32 -25 3 l-26 -20
0 40 c0 23 -4 41 -10 41 -6 0 -10 -33 -10 -80z"/>
<path d="M7110 5050 c0 -91 17 -109 22 -22 l3 57 30 -57 c41 -82 55 -76 55 22
0 47 -4 80 -10 80 -6 0 -10 -28 -10 -62 l0 -63 -30 63 c-42 89 -60 84 -60 -18z"/>
<path d="M7255 5119 c-4 -6 -4 -39 0 -75 6 -58 9 -65 32 -70 45 -12 58 6 61
85 2 42 -1 71 -7 71 -6 0 -11 -30 -13 -67 -3 -62 -5 -68 -25 -71 -22 -3 -23 0
-23 67 0 66 -9 87 -25 60z"/>
<path d="M7390 5050 l0 -80 50 0 c28 0 50 5 50 10 0 6 -18 10 -40 10 l-40 0 0
70 c0 40 -4 70 -10 70 -6 0 -10 -33 -10 -80z"/>
<path d="M7520 5050 l0 -80 45 0 c25 0 45 5 45 10 0 6 -16 10 -35 10 l-35 0 0
70 c0 40 -4 70 -10 70 -6 0 -10 -33 -10 -80z"/>
<path d="M3720 5030 c0 -33 4 -60 10 -60 6 0 10 23 10 50 0 77 28 61 32 -18 1
-33 2 -31 7 12 8 69 31 74 31 7 0 -28 5 -51 10 -51 11 0 13 90 2 106 -4 5 -28
11 -54 12 l-48 2 0 -60z"/>
<path d="M3867 5083 c-14 -14 -6 -19 22 -15 42 6 49 -16 7 -24 -69 -12 -55
-75 15 -72 l39 1 0 47 c0 25 -5 51 -12 58 -13 13 -60 16 -71 5z m63 -57 c0
-18 -15 -36 -30 -36 -22 0 -34 15 -25 30 6 9 55 15 55 6z"/>
<path d="M4004 5081 c-9 -9 -3 -111 6 -111 6 0 10 11 10 24 0 46 18 76 45 76
14 0 25 5 25 10 0 10 -76 10 -86 1z"/>
<path d="M7110 4670 c0 -91 17 -109 22 -22 l3 57 30 -57 c41 -82 55 -76 55 22
0 47 -4 80 -10 80 -6 0 -10 -28 -10 -62 l0 -63 -30 63 c-42 89 -60 84 -60 -18z"/>
<path d="M7255 4739 c-4 -6 -4 -39 0 -75 6 -58 9 -65 32 -70 45 -12 58 6 61
85 2 42 -1 71 -7 71 -6 0 -11 -30 -13 -67 -3 -62 -5 -68 -25 -71 -22 -3 -23 0
-23 67 0 66 -9 87 -25 60z"/>
<path d="M7390 4670 l0 -80 50 0 c28 0 50 5 50 10 0 6 -18 10 -40 10 l-40 0 0
70 c0 40 -4 70 -10 70 -6 0 -10 -33 -10 -80z"/>
<path d="M7520 4670 l0 -80 45 0 c25 0 45 5 45 10 0 6 -16 10 -35 10 l-35 0 0
70 c0 40 -4 70 -10 70 -6 0 -10 -33 -10 -80z"/>
<path d="M4520 4725 c0 -8 -7 -15 -15 -15 -8 0 -15 -4 -15 -10 0 -5 7 -10 15
-10 10 0 15 -10 15 -31 0 -44 17 -69 45 -69 14 0 25 5 25 10 0 6 -9 10 -19 10
-21 0 -31 19 -31 56 0 19 5 24 25 24 14 0 25 5 25 10 0 6 -11 10 -25 10 -16 0
-25 6 -25 15 0 8 -4 15 -10 15 -5 0 -10 -7 -10 -15z"/>
<path d="M3747 4692 c-21 -23 -22 -66 -1 -86 17 -18 74 -22 74 -6 0 6 -13 10
-30 10 -23 0 -31 5 -36 25 -8 33 13 58 43 52 15 -3 22 0 20 7 -6 19 -52 18
-70 -2z"/>
<path d="M3866 4694 c-34 -34 -13 -104 32 -104 36 0 52 17 52 53 0 61 -47 89
-84 51z m59 -44 c0 -28 -4 -36 -22 -38 -24 -4 -38 25 -28 59 5 14 14 19 28 17
18 -2 22 -10 22 -38z"/>
<path d="M3980 4649 c0 -33 4 -59 10 -59 6 0 10 23 10 50 0 28 5 50 10 50 6 0
10 -22 10 -50 0 -27 5 -50 10 -50 6 0 10 23 10 51 0 66 24 62 28 -4 4 -56 22
-64 22 -9 0 72 -6 80 -61 80 l-49 1 0 -60z"/>
<path d="M4112 4648 l1 -63 6 49 c8 69 31 74 31 7 0 -28 5 -51 10 -51 6 0 10
23 10 50 0 59 16 67 25 13 11 -68 13 -69 12 -8 l-2 60 -47 3 -48 2 2 -62z"/>
<path d="M4252 4698 c-16 -16 -16 -80 0 -96 14 -14 78 -16 78 -3 0 6 -15 11
-32 13 -22 2 -34 9 -36 21 -3 14 4 17 37 17 29 0 41 4 41 14 0 37 -61 61 -88
34z m58 -18 c0 -5 -12 -10 -26 -10 -14 0 -23 4 -19 10 3 6 15 10 26 10 10 0
19 -4 19 -10z"/>
<path d="M4370 4649 c0 -33 4 -59 10 -59 6 0 10 15 10 34 0 47 9 66 31 66 16
0 19 -8 19 -50 0 -28 5 -50 10 -50 7 0 10 22 8 58 l-3 57 -42 1 -43 2 0 -59z"/>
<path d="M3860 4280 c0 -86 17 -111 22 -32 3 39 6 47 23 47 17 0 20 -8 23 -47
4 -60 22 -63 22 -5 0 53 -19 82 -49 74 -17 -4 -21 -1 -21 19 0 13 -4 24 -10
24 -6 0 -10 -33 -10 -80z"/>
<path d="M4250 4280 c0 -47 4 -80 10 -80 6 0 10 11 10 25 0 14 4 25 10 25 5 0
17 -11 26 -25 9 -14 23 -25 31 -25 10 0 6 10 -13 35 l-27 36 23 24 c30 32 6
34 -27 3 l-23 -21 0 41 c0 23 -4 42 -10 42 -6 0 -10 -33 -10 -80z"/>
<path d="M5210 4336 c0 -19 -4 -23 -20 -19 -30 8 -50 -15 -50 -57 0 -45 14
-59 58 -58 l32 1 0 79 c0 45 -4 78 -10 78 -5 0 -10 -11 -10 -24z m-5 -76 c0
-28 -4 -35 -20 -35 -13 0 -21 8 -23 23 -5 34 5 54 25 50 13 -2 18 -13 18 -38z"/>
<path d="M5310 4350 c0 -5 5 -10 10 -10 6 0 10 5 10 10 0 6 -4 10 -10 10 -5 0
-10 -4 -10 -10z"/>
<path d="M7110 4280 c0 -91 17 -109 22 -22 l3 57 30 -57 c41 -82 55 -76 55 22
0 47 -4 80 -10 80 -6 0 -10 -28 -10 -62 l0 -63 -30 63 c-42 89 -60 84 -60 -18z"/>
<path d="M7255 4349 c-4 -6 -4 -39 0 -75 6 -58 9 -65 32 -70 45 -12 58 6 61
85 2 42 -1 71 -7 71 -6 0 -11 -30 -13 -67 -3 -62 -5 -68 -25 -71 -22 -3 -23 0
-23 67 0 66 -9 87 -25 60z"/>
<path d="M7390 4280 l0 -80 50 0 c28 0 50 5 50 10 0 6 -18 10 -40 10 l-40 0 0
70 c0 40 -4 70 -10 70 -6 0 -10 -33 -10 -80z"/>
<path d="M7520 4280 l0 -80 45 0 c25 0 45 5 45 10 0 6 -16 10 -35 10 l-35 0 0
70 c0 40 -4 70 -10 70 -6 0 -10 -33 -10 -80z"/>
<path d="M5550 4335 c0 -8 -7 -15 -15 -15 -8 0 -15 -4 -15 -10 0 -5 7 -10 15
-10 11 0 15 -11 15 -39 0 -44 18 -64 52 -59 23 4 22 5 -4 16 -23 9 -28 18 -28
47 0 28 4 35 20 35 11 0 20 5 20 10 0 6 -9 10 -20 10 -11 0 -20 7 -20 15 0 8
-4 15 -10 15 -5 0 -10 -7 -10 -15z"/>
<path d="M3747 4302 c-21 -23 -22 -66 -1 -86 17 -18 74 -22 74 -6 0 6 -13 10
-30 10 -23 0 -31 5 -36 25 -8 33 13 58 43 52 15 -3 22 0 20 7 -6 19 -52 18
-70 -2z"/>
<path d="M3997 4302 c-22 -24 -22 -66 -1 -87 18 -18 75 -17 81 1 2 7 -8 9 -28
6 -20 -3 -34 0 -40 9 -15 24 -10 29 31 29 32 0 40 4 40 18 0 41 -54 57 -83 24z
m58 -12 c4 -6 -5 -10 -19 -10 -14 0 -26 5 -26 10 0 6 9 10 19 10 11 0 23 -4
26 -10z"/>
<path d="M4132 4308 c-15 -15 -16 -80 0 -96 14 -14 64 -16 73 -3 3 5 -9 11
-27 13 -30 3 -33 6 -33 38 0 33 2 35 33 35 17 0 31 4 29 10 -5 15 -60 18 -75
3z"/>
<path d="M4382 4308 c-16 -16 -16 -80 0 -96 14 -14 78 -16 78 -3 0 6 -15 11
-32 13 -22 2 -34 9 -36 21 -3 14 4 17 37 17 29 0 41 4 41 14 0 37 -61 61 -88
34z m58 -18 c0 -5 -12 -10 -26 -10 -14 0 -23 4 -19 10 3 6 15 10 26 10 10 0
19 -4 19 -10z"/>
<path d="M4520 4258 c0 -69 18 -78 22 -10 3 43 5 47 31 50 42 5 32 22 -13 20
l-40 -1 0 -59z"/>
<path d="M4756 4298 c36 -115 52 -124 77 -45 20 62 20 67 8 67 -4 0 -14 -20
-21 -46 -14 -50 -22 -48 -40 9 -6 20 -16 37 -21 37 -6 0 -7 -10 -3 -22z"/>
<path d="M4896 4304 c-9 -8 -16 -28 -16 -44 0 -36 24 -60 60 -60 44 0 46 18 3
22 -27 2 -39 8 -41 21 -3 14 4 17 37 17 33 0 41 4 41 18 0 40 -54 57 -84 26z
m59 -14 c4 -6 -7 -10 -25 -10 -18 0 -29 4 -25 10 3 6 15 10 25 10 10 0 22 -4
25 -10z"/>
<path d="M5030 4260 c0 -33 4 -60 10 -60 6 0 10 17 10 38 0 41 14 62 42 62 10
0 18 5 18 10 0 14 -33 13 -48 -2 -9 -9 -12 -9 -12 0 0 7 -4 12 -10 12 -6 0
-10 -27 -10 -60z"/>
<path d="M5280 4310 c0 -5 7 -10 15 -10 11 0 15 -11 15 -40 0 -28 -4 -40 -14
-40 -8 0 -18 -4 -21 -10 -4 -6 13 -10 44 -10 28 0 51 5 51 10 0 6 -9 10 -20
10 -17 0 -20 7 -20 50 0 47 -2 50 -25 50 -14 0 -25 -4 -25 -10z"/>
<path d="M5416 4305 c-37 -38 -8 -109 42 -103 38 4 37 23 0 23 -31 0 -33 2
-33 35 0 33 2 35 33 35 17 0 31 4 29 10 -6 17 -54 17 -71 0z"/>
<path d="M4610 4170 c0 -6 26 -10 59 -10 33 0 63 5 66 10 4 6 -18 10 -59 10
-37 0 -66 -4 -66 -10z"/>
<path d="M1514 3195 l1 -60 38 -2 37 -1 0 60 c0 37 -4 57 -10 53 -5 -3 -10
-26 -10 -51 0 -37 -3 -44 -20 -44 -20 0 -25 12 -34 75 -2 17 -3 3 -2 -30z"/>
<path d="M1647 3243 c-4 -3 -7 -16 -7 -29 0 -16 9 -25 30 -33 41 -14 38 -31
-6 -31 -21 0 -33 -4 -29 -10 10 -16 61 -12 76 6 16 20 1 48 -30 52 -30 5 -27
32 4 32 14 0 25 5 25 10 0 11 -53 14 -63 3z"/>
<path d="M1772 3238 c-7 -7 -12 -28 -12 -48 0 -45 15 -60 57 -60 43 0 43 18 1
22 -22 2 -34 9 -36 21 -3 14 4 17 37 17 29 0 41 4 41 14 0 37 -61 61 -88 34z
m58 -23 c0 -9 -9 -15 -25 -15 -24 0 -32 10 -18 23 12 13 43 7 43 -8z"/>
<path d="M1910 3188 c0 -69 18 -78 22 -10 3 43 5 47 31 50 42 5 32 22 -13 20
l-40 -1 0 -59z"/>
<path d="M2030 3235 c-17 -20 -6 -43 25 -51 36 -9 32 -34 -5 -34 -16 0 -30 -5
-30 -11 0 -6 16 -9 38 -7 32 3 37 7 40 29 3 22 -2 29 -27 37 -40 14 -40 32 -1
32 17 0 30 5 30 10 0 16 -56 12 -70 -5z"/>
<path d="M210 2245 l0 -785 2375 0 2375 0 0 785 0 785 -2375 0 -2375 0 0 -785z
m4710 0 l0 -755 -2335 0 -2335 0 0 755 0 755 2335 0 2335 0 0 -755z"/>
<path d="M450 2820 c0 -5 5 -10 10 -10 6 0 10 5 10 10 0 6 -4 10 -10 10 -5 0
-10 -4 -10 -10z"/>
<path d="M610 2807 c0 -18 -5 -22 -32 -22 -26 0 -34 -5 -42 -27 -6 -18 -6 -38
0 -55 8 -24 15 -28 52 -29 l42 -2 0 79 c0 46 -4 79 -10 79 -5 0 -10 -10 -10
-23z m-7 -57 c8 -31 -3 -60 -24 -60 -24 0 -33 21 -25 55 8 30 41 34 49 5z"/>
<path d="M3750 2750 c0 -47 4 -80 10 -80 6 0 10 13 10 28 0 23 6 30 33 37 25
8 33 16 35 40 4 34 -18 55 -60 55 l-28 0 0 -80z m54 54 c32 -12 13 -54 -25
-54 -5 0 -9 14 -9 30 0 31 6 35 34 24z"/>
<path d="M3870 2750 c0 -47 4 -80 10 -80 6 0 10 16 10 35 0 44 14 44 42 0 13
-19 29 -35 37 -35 13 0 8 10 -35 75 -12 17 -10 23 18 52 23 24 27 33 16 33 -9
0 -28 -13 -41 -30 -14 -16 -28 -30 -31 -30 -3 0 -6 14 -6 30 0 17 -4 30 -10
30 -6 0 -10 -33 -10 -80z"/>
<path d="M420 2780 c0 -5 7 -10 15 -10 11 0 15 -11 15 -40 0 -28 -4 -40 -14
-40 -8 0 -18 -4 -21 -10 -4 -6 13 -10 44 -10 28 0 51 5 51 10 0 6 -9 10 -20
10 -17 0 -20 7 -20 50 0 47 -2 50 -25 50 -14 0 -25 -4 -25 -10z"/>
<path d="M1453 2433 c626 -2 1648 -2 2270 0 623 1 111 2 -1138 2 -1249 0
-1758 -1 -1132 -2z"/>
<path d="M410 2118 c0 -69 18 -78 22 -10 3 39 6 47 23 47 17 0 20 -8 23 -47 4
-63 22 -62 22 1 0 56 -12 70 -58 69 l-32 -1 0 -59z"/>
<path d="M547 2173 c-14 -14 -6 -19 22 -15 42 6 49 -16 7 -24 -69 -12 -55 -75
15 -72 l39 1 0 47 c0 25 -5 51 -12 58 -13 13 -60 16 -71 5z m63 -57 c0 -18
-15 -36 -30 -36 -22 0 -34 15 -25 30 6 9 55 15 55 6z"/>
<path d="M660 2119 c0 -33 4 -59 10 -59 6 0 10 23 10 50 0 28 5 50 10 50 6 0
10 -22 10 -50 0 -27 5 -50 10 -50 6 0 10 23 10 51 0 66 24 62 28 -4 4 -56 22
-64 22 -9 0 72 -6 80 -61 80 l-49 1 0 -60z"/>
<path d="M806 2164 c-20 -20 -20 -68 0 -88 17 -17 69 -22 79 -7 3 6 -12 11
-32 13 -27 2 -39 8 -41 21 -3 14 4 17 37 17 33 0 41 4 41 18 0 40 -54 57 -84
26z m59 -14 c4 -6 -7 -10 -25 -10 -18 0 -29 4 -25 10 3 6 15 10 25 10 10 0 22
-4 25 -10z"/>
<path d="M450 1820 c0 -5 5 -10 10 -10 6 0 10 5 10 10 0 6 -4 10 -10 10 -5 0
-10 -4 -10 -10z"/>
<path d="M1310 1750 c0 -86 17 -111 22 -32 3 39 6 47 23 47 17 0 20 -8 23 -47
4 -60 22 -63 22 -5 0 53 -19 82 -49 74 -17 -4 -21 -1 -21 19 0 13 -4 24 -10
24 -6 0 -10 -33 -10 -80z"/>
<path d="M820 1805 c0 -8 -7 -15 -15 -15 -8 0 -15 -4 -15 -10 0 -5 7 -10 15
-10 11 0 15 -12 15 -44 0 -31 5 -46 16 -50 24 -9 44 -7 44 4 0 6 -9 10 -20 10
-17 0 -20 7 -20 40 0 33 3 40 20 40 11 0 20 5 20 10 0 6 -9 10 -20 10 -11 0
-20 7 -20 15 0 8 -4 15 -10 15 -5 0 -10 -7 -10 -15z"/>
<path d="M420 1780 c0 -5 7 -10 15 -10 11 0 15 -11 15 -40 0 -28 -4 -40 -14
-40 -8 0 -18 -4 -21 -10 -4 -6 13 -10 44 -10 28 0 51 5 51 10 0 6 -9 10 -20
10 -17 0 -20 7 -20 50 0 47 -2 50 -25 50 -14 0 -25 -4 -25 -10z"/>
<path d="M550 1775 c-17 -20 -6 -43 25 -51 36 -9 32 -34 -5 -34 -16 0 -30 -5
-30 -11 0 -6 16 -9 38 -7 32 3 37 7 40 29 3 22 -2 29 -27 37 -40 14 -40 32 -1
32 17 0 30 5 30 10 0 16 -56 12 -70 -5z"/>
<path d="M932 1778 c-7 -7 -12 -28 -12 -48 0 -45 15 -60 57 -60 43 0 43 18 1
22 -22 2 -34 9 -36 21 -3 14 4 17 37 17 29 0 41 4 41 14 0 37 -61 61 -88 34z
m58 -18 c0 -5 -12 -10 -26 -10 -14 0 -23 4 -19 10 3 6 15 10 26 10 10 0 19 -4
19 -10z"/>
<path d="M1055 1780 c-4 -6 8 -10 29 -10 45 0 47 -14 4 -26 -28 -8 -33 -15
-33 -39 0 -28 2 -30 43 -31 l42 -2 0 47 c0 26 -5 52 -12 59 -15 15 -64 16 -73
2z m63 -67 c-4 -22 -48 -31 -48 -10 0 19 10 27 32 27 13 0 18 -6 16 -17z"/>
<path d="M1197 1772 c-21 -23 -22 -66 -1 -86 17 -18 74 -22 74 -6 0 6 -13 10
-30 10 -23 0 -31 5 -36 25 -8 33 13 58 43 52 15 -3 22 0 20 7 -6 19 -52 18
-70 -2z"/>
<path d="M1447 1772 c-22 -24 -22 -66 -1 -87 18 -18 75 -17 81 1 2 7 -8 9 -28
6 -20 -3 -34 0 -40 9 -15 24 -10 29 31 29 32 0 40 4 40 18 0 41 -54 57 -83 24z
m58 -12 c4 -6 -5 -10 -19 -10 -14 0 -26 5 -26 10 0 6 9 10 19 10 11 0 23 -4
26 -10z"/>
<path d="M1580 1728 c0 -32 4 -58 10 -58 6 0 10 17 10 38 0 44 14 62 48 62 13
0 21 4 17 9 -3 6 -23 9 -45 8 l-40 -1 0 -58z"/>
<path d="M650 1640 c0 -6 26 -10 59 -10 33 0 63 5 66 10 4 6 -18 10 -59 10
-37 0 -66 -4 -66 -10z"/>
<path d="M7513 2910 c-1 -85 0 -87 12 -17 4 28 11 37 25 37 17 0 20 -7 20 -50
0 -28 5 -50 10 -50 7 0 10 22 8 58 l-3 57 -32 -1 c-27 -2 -32 2 -36 25 -2 14
-4 -12 -4 -59z"/>
<path d="M8410 2910 c0 -47 4 -80 10 -80 6 0 10 11 10 25 0 14 4 25 10 25 5 0
17 -11 26 -25 9 -14 23 -25 31 -25 10 0 6 10 -13 35 l-27 36 23 24 c30 32 6
34 -27 3 l-23 -21 0 41 c0 23 -4 42 -10 42 -6 0 -10 -33 -10 -80z"/>
<path d="M7642 2938 c-17 -17 -15 -83 2 -98 23 -18 59 -8 76 23 13 24 13 30 0
55 -17 30 -57 41 -78 20z m61 -28 c9 -35 -3 -61 -27 -58 -21 3 -33 36 -22 64
8 21 43 17 49 -6z"/>
<path d="M7750 2890 c0 -33 4 -60 10 -60 6 0 10 23 10 50 0 38 4 50 15 50 11
0 15 -12 15 -50 0 -27 5 -50 10 -50 6 0 10 23 10 50 0 28 5 50 10 50 6 0 10
-22 10 -50 0 -28 5 -50 10 -50 7 0 10 22 8 58 l-3 57 -52 3 -53 2 0 -60z"/>
<path d="M7896 2928 c-33 -46 -6 -98 50 -98 43 0 45 18 2 22 -22 2 -34 9 -36
21 -3 14 4 17 37 17 23 0 41 3 41 8 0 20 -34 52 -55 52 -13 0 -31 -10 -39 -22z
m64 -13 c0 -9 -9 -15 -25 -15 -24 0 -32 10 -18 23 12 13 43 7 43 -8z"/>
<path d="M8000 2941 c0 -26 25 -111 32 -111 5 0 13 12 19 28 l11 27 10 -27 c5
-16 13 -28 18 -28 10 0 33 95 27 112 -5 15 -11 3 -22 -47 -7 -29 -7 -29 -16
-7 -4 12 -12 22 -17 22 -5 0 -14 -10 -19 -22 -9 -21 -11 -19 -17 20 -4 23 -12
42 -17 42 -5 0 -9 -4 -9 -9z"/>
<path d="M8156 2934 c-34 -34 -13 -104 32 -104 36 0 52 17 52 53 0 61 -47 89
-84 51z m59 -44 c0 -28 -4 -36 -22 -38 -14 -2 -23 3 -28 17 -10 34 4 63 28 59
18 -2 22 -10 22 -38z"/>
<path d="M8290 2890 c0 -33 4 -60 10 -60 6 0 10 17 10 39 0 42 12 57 50 63 22
4 23 5 6 13 -11 5 -26 4 -37 -4 -12 -7 -19 -7 -19 -1 0 5 -4 10 -10 10 -6 0
-10 -27 -10 -60z"/>
<path d="M8547 2943 c-4 -3 -7 -16 -7 -29 0 -16 9 -25 30 -33 41 -14 38 -31
-6 -31 -21 0 -33 -4 -29 -10 10 -16 61 -12 76 6 16 20 1 48 -30 52 -30 5 -27
32 4 32 14 0 25 5 25 10 0 11 -53 14 -63 3z"/>
<path d="M6210 1555 l0 -1175 2935 0 2935 0 0 1175 0 1175 -2935 0 -2935 0 0
-1175z m5840 5 l0 -1140 -2900 0 -2900 0 0 1140 0 1140 2900 0 2900 0 0 -1140z"/>
<path d="M6450 2520 c0 -5 5 -10 10 -10 6 0 10 5 10 10 0 6 -4 10 -10 10 -5 0
-10 -4 -10 -10z"/>
<path d="M6610 2507 c0 -18 -5 -22 -32 -22 -26 0 -34 -5 -42 -27 -6 -18 -6
-38 0 -55 8 -24 15 -28 52 -29 l42 -2 0 79 c0 46 -4 79 -10 79 -5 0 -10 -10
-10 -23z m-7 -57 c8 -31 -3 -60 -24 -60 -24 0 -33 21 -25 55 8 30 41 34 49 5z"/>
<path d="M10870 2450 c0 -47 4 -80 10 -80 6 0 10 13 10 29 0 25 5 30 34 35 53
10 63 77 13 90 -63 17 -67 13 -67 -74z m70 45 c16 -19 -3 -45 -31 -45 -14 0
-19 7 -19 30 0 23 5 30 19 30 10 0 24 -7 31 -15z"/>
<path d="M10990 2450 c0 -47 4 -80 10 -80 6 0 10 13 10 29 0 34 19 51 31 29
17 -31 48 -63 54 -56 4 3 -6 25 -21 47 l-27 41 27 35 c33 43 20 46 -19 5 -16
-16 -32 -30 -37 -30 -4 0 -8 14 -8 30 0 17 -4 30 -10 30 -6 0 -10 -33 -10 -80z"/>
<path d="M6420 2480 c0 -5 7 -10 15 -10 11 0 15 -11 15 -40 0 -28 -4 -40 -14
-40 -8 0 -18 -4 -21 -10 -4 -6 13 -10 44 -10 28 0 51 5 51 10 0 6 -9 10 -20
10 -17 0 -20 7 -20 50 0 47 -2 50 -25 50 -14 0 -25 -4 -25 -10z"/>
<path d="M7733 2133 c780 -2 2054 -2 2830 0 777 1 139 2 -1418 2 -1557 0
-2192 -1 -1412 -2z"/>
<path d="M6580 1910 c0 -5 5 -10 10 -10 6 0 10 5 10 10 0 6 -4 10 -10 10 -5 0
-10 -4 -10 -10z"/>
<path d="M6813 1913 c14 -4 17 -16 17 -67 0 -64 11 -86 42 -86 24 0 23 16 -2
23 -17 4 -20 14 -20 71 0 66 0 66 -27 65 -17 -1 -21 -3 -10 -6z"/>
<path d="M6430 1895 c0 -8 -7 -15 -15 -15 -8 0 -15 -4 -15 -10 0 -5 7 -10 15
-10 10 0 15 -10 15 -31 0 -44 17 -69 45 -69 14 0 25 5 25 10 0 6 -9 10 -19 10
-21 0 -31 19 -31 56 0 19 5 24 25 24 14 0 25 5 25 10 0 6 -11 10 -25 10 -16 0
-25 6 -25 15 0 8 -4 15 -10 15 -5 0 -10 -7 -10 -15z"/>
<path d="M6690 1895 c0 -8 -7 -15 -15 -15 -8 0 -15 -4 -15 -10 0 -5 7 -10 15
-10 11 0 15 -11 15 -39 0 -44 18 -64 52 -59 23 4 22 5 -4 16 -23 9 -28 18 -28
47 0 28 4 35 20 35 11 0 20 5 20 10 0 6 -9 10 -20 10 -11 0 -20 7 -20 15 0 8
-4 15 -10 15 -5 0 -10 -7 -10 -15z"/>
<path d="M6550 1870 c0 -5 7 -10 15 -10 11 0 15 -11 15 -40 0 -33 -3 -40 -20
-40 -11 0 -20 -4 -20 -10 0 -5 23 -10 50 -10 28 0 50 5 50 10 0 6 -9 10 -20
10 -17 0 -20 7 -20 50 0 47 -2 50 -25 50 -14 0 -25 -4 -25 -10z"/>
<path d="M6932 1868 c-7 -7 -12 -28 -12 -48 0 -45 15 -60 57 -60 43 0 43 18 1
22 -22 2 -34 9 -36 21 -3 14 4 17 37 17 29 0 41 4 41 14 0 37 -61 61 -88 34z
m58 -18 c0 -5 -12 -10 -26 -10 -14 0 -23 4 -19 10 3 6 15 10 26 10 10 0 19 -4
19 -10z"/>
<path d="M6800 1450 c0 -47 4 -80 10 -80 6 0 10 11 10 24 0 37 13 38 35 5 11
-16 26 -29 34 -29 9 0 4 12 -14 36 l-27 35 23 25 c28 29 12 32 -25 3 l-26 -20
0 40 c0 23 -4 41 -10 41 -6 0 -10 -33 -10 -80z"/>
<path d="M7120 1506 c0 -19 -4 -23 -20 -19 -30 8 -50 -15 -50 -57 0 -45 14
-59 58 -58 l32 1 0 79 c0 45 -4 78 -10 78 -5 0 -10 -11 -10 -24z m-5 -76 c0
-28 -4 -35 -20 -35 -13 0 -21 8 -23 23 -5 34 5 54 25 50 13 -2 18 -13 18 -38z"/>
<path d="M7730 1520 c0 -5 5 -10 10 -10 6 0 10 5 10 10 0 6 -4 10 -10 10 -5 0
-10 -4 -10 -10z"/>
<path d="M8120 1520 c0 -5 5 -10 10 -10 6 0 10 5 10 10 0 6 -4 10 -10 10 -5 0
-10 -4 -10 -10z"/>
<path d="M6430 1505 c0 -8 -7 -15 -15 -15 -8 0 -15 -4 -15 -10 0 -5 7 -10 15
-10 10 0 15 -10 15 -31 0 -44 17 -69 45 -69 14 0 25 5 25 10 0 6 -9 10 -19 10
-21 0 -31 19 -31 56 0 19 5 24 25 24 14 0 25 5 25 10 0 6 -11 10 -25 10 -16 0
-25 6 -25 15 0 8 -4 15 -10 15 -5 0 -10 -7 -10 -15z"/>
<path d="M7970 1505 c0 -8 -7 -15 -15 -15 -8 0 -15 -4 -15 -10 0 -5 7 -10 15
-10 10 0 15 -10 15 -31 0 -44 17 -69 45 -69 14 0 25 5 25 10 0 6 -9 10 -19 10
-21 0 -31 19 -31 56 0 19 5 24 25 24 14 0 25 5 25 10 0 6 -11 10 -25 10 -16 0
-25 6 -25 15 0 8 -4 15 -10 15 -5 0 -10 -7 -10 -15z"/>
<path d="M6547 1483 c-14 -14 -6 -19 22 -15 42 6 49 -16 7 -24 -69 -12 -55
-75 15 -72 l39 1 0 47 c0 25 -5 51 -12 58 -13 13 -60 16 -71 5z m63 -57 c0
-18 -15 -36 -30 -36 -22 0 -34 15 -25 30 6 9 55 15 55 6z"/>
<path d="M6680 1475 c-17 -20 -6 -43 25 -51 36 -9 32 -34 -5 -34 -16 0 -30 -5
-30 -11 0 -6 16 -9 38 -7 32 3 37 7 40 29 3 22 -2 29 -27 37 -40 14 -40 32 -1
32 17 0 30 5 30 10 0 16 -56 12 -70 -5z"/>
<path d="M7186 1468 c-33 -46 -6 -98 50 -98 43 0 45 18 2 22 -22 2 -34 9 -36
21 -3 14 4 17 37 17 23 0 41 3 41 8 0 20 -34 52 -55 52 -13 0 -31 -10 -39 -22z
m64 -8 c0 -5 -12 -10 -26 -10 -14 0 -23 4 -19 10 3 6 15 10 26 10 10 0 19 -4
19 -10z"/>
<path d="M7320 1475 c-17 -20 -6 -43 25 -51 36 -9 32 -34 -5 -34 -16 0 -30 -5
-30 -11 0 -6 16 -9 38 -7 32 3 37 7 40 29 3 22 -2 29 -27 37 -40 14 -40 32 -1
32 17 0 30 5 30 10 0 16 -56 12 -70 -5z"/>
<path d="M7456 1475 c-37 -38 -8 -109 42 -103 38 4 37 23 0 23 -31 0 -33 2
-33 35 0 33 2 35 33 35 17 0 31 4 29 10 -6 17 -54 17 -71 0z"/>
<path d="M7580 1428 c0 -32 4 -58 10 -58 6 0 10 17 10 38 0 44 14 62 48 62 13
0 21 4 17 9 -3 6 -23 9 -45 8 l-40 -1 0 -58z"/>
<path d="M7710 1480 c0 -5 5 -10 10 -10 6 0 10 -18 10 -40 0 -29 -4 -40 -15
-40 -8 0 -15 -4 -15 -10 0 -5 20 -10 45 -10 25 0 45 5 45 10 0 6 -9 10 -20 10
-17 0 -20 7 -20 50 0 43 -3 50 -20 50 -11 0 -20 -4 -20 -10z"/>
<path d="M7820 1408 c0 -45 4 -78 10 -78 6 0 10 11 10 24 0 20 4 22 27 18 31
-6 53 18 53 59 0 38 -24 59 -65 57 l-35 -1 0 -79z m75 42 c9 -29 -4 -60 -25
-60 -21 0 -34 31 -25 60 3 11 15 20 25 20 10 0 22 -9 25 -20z"/>
<path d="M8090 1480 c0 -5 7 -10 15 -10 11 0 15 -11 15 -40 0 -33 -3 -40 -20
-40 -11 0 -20 -4 -20 -10 0 -5 23 -10 50 -10 28 0 50 5 50 10 0 6 -9 10 -20
10 -17 0 -20 7 -20 50 0 47 -2 50 -25 50 -14 0 -25 -4 -25 -10z"/>
<path d="M8216 1474 c-34 -34 -13 -104 32 -104 36 0 52 17 52 53 0 61 -47 89
-84 51z m59 -44 c0 -28 -4 -36 -22 -38 -14 -2 -23 3 -28 17 -10 34 4 63 28 59
18 -2 22 -10 22 -38z"/>
<path d="M8334 1481 c-9 -9 -4 -111 6 -111 6 0 10 12 10 28 0 47 11 72 31 72
16 0 19 -8 19 -50 0 -28 5 -50 10 -50 7 0 10 22 8 58 l-3 57 -38 0 c-21 0 -40
-1 -43 -4z"/>
<path d="M6900 1340 c0 -6 28 -10 65 -10 37 0 65 4 65 10 0 6 -28 10 -65 10
-37 0 -65 -4 -65 -10z"/>
<path d="M6670 1072 l0 -79 32 -1 c44 -1 58 13 58 58 0 42 -20 65 -50 57 -16
-4 -20 0 -20 19 0 13 -4 24 -10 24 -6 0 -10 -33 -10 -78z m65 -22 c0 -28 -4
-35 -20 -35 -13 0 -21 8 -23 23 -5 34 5 54 25 50 13 -2 18 -13 18 -38z"/>
<path d="M6813 1143 c14 -4 17 -16 17 -67 0 -64 11 -86 42 -86 24 0 23 16 -2
23 -17 4 -20 14 -20 71 0 66 0 66 -27 65 -17 -1 -21 -3 -10 -6z"/>
<path d="M6960 1140 c0 -5 5 -10 10 -10 6 0 10 5 10 10 0 6 -4 10 -10 10 -5 0
-10 -4 -10 -10z"/>
<path d="M7480 1140 c0 -5 5 -10 10 -10 6 0 10 5 10 10 0 6 -4 10 -10 10 -5 0
-10 -4 -10 -10z"/>
<path d="M8120 1140 c0 -5 5 -10 10 -10 6 0 10 5 10 10 0 6 -4 10 -10 10 -5 0
-10 -4 -10 -10z"/>
<path d="M7330 1125 c0 -8 -7 -15 -15 -15 -8 0 -15 -4 -15 -10 0 -5 7 -10 15
-10 11 0 15 -11 15 -39 0 -44 18 -64 52 -59 23 4 22 5 -4 16 -23 9 -28 18 -28
47 0 28 4 35 20 35 11 0 20 5 20 10 0 6 -9 10 -20 10 -11 0 -20 7 -20 15 0 8
-4 15 -10 15 -5 0 -10 -7 -10 -15z"/>
<path d="M7970 1125 c0 -8 -7 -15 -15 -15 -8 0 -15 -4 -15 -10 0 -5 7 -10 15
-10 10 0 15 -10 15 -31 0 -44 17 -69 45 -69 14 0 25 5 25 10 0 6 -9 10 -19 10
-21 0 -31 19 -31 56 0 19 5 24 25 24 14 0 25 5 25 10 0 6 -11 10 -25 10 -16 0
-25 6 -25 15 0 8 -4 15 -10 15 -5 0 -10 -7 -10 -15z"/>
<path d="M6410 1029 c0 -46 4 -79 10 -79 6 0 10 10 10 23 0 18 5 23 27 22 38
0 60 43 41 83 -11 22 -20 27 -51 29 l-37 1 0 -79z m68 18 c3 -35 1 -38 -20
-35 -24 3 -35 34 -24 64 12 30 41 11 44 -29z"/>
<path d="M6542 1053 l3 -58 43 -1 42 -2 0 59 c0 33 -4 59 -10 59 -5 0 -10 -15
-10 -34 0 -47 -9 -66 -31 -66 -16 0 -19 8 -19 50 0 28 -5 50 -10 50 -7 0 -10
-22 -8 -57z"/>
<path d="M6940 1100 c0 -5 5 -10 10 -10 6 0 10 -18 10 -40 0 -29 -4 -40 -15
-40 -8 0 -15 -4 -15 -10 0 -5 20 -10 45 -10 25 0 45 5 45 10 0 6 -9 10 -20 10
-17 0 -20 7 -20 50 0 43 -3 50 -20 50 -11 0 -20 -4 -20 -10z"/>
<path d="M7066 1088 c-9 -12 -16 -29 -16 -38 0 -30 30 -60 61 -60 16 0 29 5
29 10 0 6 -11 10 -25 10 -14 0 -29 8 -35 20 -15 28 4 60 35 60 14 0 25 5 25
10 0 20 -59 10 -74 -12z"/>
<path d="M7187 1103 c-14 -14 -6 -19 22 -15 39 5 49 -15 11 -23 -17 -4 -35
-16 -41 -26 -16 -30 5 -49 52 -47 l39 1 0 47 c0 25 -5 51 -12 58 -13 13 -60
16 -71 5z m63 -68 c0 -19 -24 -29 -46 -21 -13 5 -14 9 -4 21 16 20 50 19 50 0z"/>
<path d="M7450 1100 c0 -5 7 -10 15 -10 11 0 15 -11 15 -40 0 -33 -3 -40 -20
-40 -11 0 -20 -4 -20 -10 0 -5 23 -10 50 -10 28 0 50 5 50 10 0 6 -9 10 -20
10 -17 0 -20 7 -20 50 0 47 -2 50 -25 50 -14 0 -25 -4 -25 -10z"/>
<path d="M7570 1091 c-25 -48 -4 -101 40 -101 32 0 50 23 50 64 0 50 -68 78
-90 37z m65 -21 c10 -33 -4 -62 -28 -58 -22 3 -34 35 -23 64 8 21 44 17 51 -6z"/>
<path d="M7690 1049 c0 -33 4 -59 10 -59 6 0 10 15 10 34 0 47 9 66 31 66 16
0 19 -8 19 -50 0 -28 5 -50 10 -50 7 0 10 22 8 58 l-3 57 -42 1 -43 2 0 -59z"/>
<path d="M8090 1100 c0 -5 7 -10 15 -10 11 0 15 -11 15 -40 0 -33 -3 -40 -20
-40 -11 0 -20 -4 -20 -10 0 -5 23 -10 50 -10 28 0 50 5 50 10 0 6 -9 10 -20
10 -17 0 -20 7 -20 50 0 47 -2 50 -25 50 -14 0 -25 -4 -25 -10z"/>
<path d="M8200 1049 c0 -33 4 -59 10 -59 6 0 10 23 10 50 0 28 5 50 10 50 6 0
10 -22 10 -50 0 -27 5 -50 10 -50 6 0 10 23 10 51 0 66 24 62 28 -4 4 -56 22
-64 22 -9 0 72 -6 80 -61 80 l-49 1 0 -60z"/>
<path d="M8346 1094 c-9 -8 -16 -28 -16 -44 0 -36 24 -60 60 -60 44 0 46 18 3
22 -27 2 -39 8 -41 21 -3 14 4 17 37 17 33 0 41 4 41 18 0 40 -54 57 -84 26z
m59 -14 c4 -6 -7 -10 -25 -10 -18 0 -29 4 -25 10 3 6 15 10 25 10 10 0 22 -4
25 -10z"/>
<path d="M7800 960 c0 -6 28 -10 65 -10 37 0 65 4 65 10 0 6 -28 10 -65 10
-37 0 -65 -4 -65 -10z"/>
<path d="M6480 734 c0 -15 -4 -23 -11 -19 -5 4 -21 4 -34 1 -28 -7 -41 -50
-26 -89 9 -23 16 -27 51 -25 l40 1 0 79 c0 45 -4 78 -10 78 -5 0 -10 -12 -10
-26z m-5 -54 c9 -29 -3 -60 -25 -60 -22 0 -32 23 -24 56 8 29 40 32 49 4z"/>
<path d="M6860 736 c0 -19 -4 -23 -20 -19 -30 8 -50 -15 -50 -56 0 -46 14 -61
57 -61 l33 0 0 80 c0 47 -4 80 -10 80 -5 0 -10 -11 -10 -24z m-5 -76 c0 -28
-4 -35 -20 -35 -13 0 -21 8 -23 23 -5 34 5 54 25 50 13 -2 18 -13 18 -38z"/>
<path d="M6943 753 c14 -4 17 -16 17 -67 0 -35 5 -67 12 -74 15 -15 48 -16 48
-2 0 6 -9 10 -20 10 -18 0 -20 7 -20 70 0 70 0 70 -27 69 -17 -1 -21 -3 -10
-6z"/>
<path d="M7090 750 c0 -5 5 -10 10 -10 6 0 10 5 10 10 0 6 -4 10 -10 10 -5 0
-10 -4 -10 -10z"/>
<path d="M10180 680 c0 -47 4 -80 10 -80 6 0 10 26 10 58 l1 57 30 -57 c43
-84 59 -78 59 22 0 94 -18 108 -22 18 l-3 -63 -29 63 c-40 87 -56 82 -56 -18z"/>
<path d="M10320 692 c0 -75 10 -92 52 -92 36 0 48 24 48 99 0 83 -18 77 -22
-6 -3 -65 -4 -68 -28 -68 -24 0 -25 3 -28 68 -4 88 -22 87 -22 -1z"/>
<path d="M10456 753 c-3 -3 -6 -39 -6 -80 l0 -73 50 0 c28 0 50 5 50 10 0 6
-16 10 -35 10 l-35 0 0 64 c0 60 -8 84 -24 69z"/>
<path d="M10580 680 l0 -80 50 0 c28 0 50 5 50 10 0 6 -18 10 -40 10 l-40 0 0
70 c0 40 -4 70 -10 70 -6 0 -10 -33 -10 -80z"/>
<path d="M6547 702 c-22 -24 -22 -66 -1 -87 18 -18 75 -17 81 1 2 7 -8 9 -28
6 -20 -3 -34 0 -40 9 -15 24 -10 29 31 29 32 0 40 4 40 18 0 41 -54 57 -83 24z
m58 -12 c4 -6 -5 -10 -19 -10 -14 0 -26 5 -26 10 0 6 9 10 19 10 11 0 23 -4
26 -10z"/>
<path d="M6677 713 c-14 -14 -6 -19 22 -15 42 6 49 -16 7 -24 -69 -12 -55 -75
15 -72 l39 1 0 47 c0 25 -5 51 -12 58 -13 13 -60 16 -71 5z m63 -57 c0 -18
-15 -36 -30 -36 -22 0 -34 15 -25 30 6 9 55 15 55 6z"/>
<path d="M7070 710 c0 -5 5 -10 10 -10 6 0 10 -18 10 -40 0 -29 -4 -40 -15
-40 -8 0 -15 -4 -15 -10 0 -5 20 -10 45 -10 25 0 45 5 45 10 0 6 -9 10 -20 10
-17 0 -20 7 -20 50 0 43 -3 50 -20 50 -11 0 -20 -4 -20 -10z"/>
<path d="M7180 658 c0 -69 18 -78 22 -10 3 39 6 47 23 47 17 0 20 -8 23 -47 4
-63 22 -62 22 1 0 56 -12 70 -58 69 l-32 -1 0 -59z"/>
<path d="M7317 702 c-22 -24 -22 -66 -1 -87 18 -18 75 -17 81 1 2 7 -8 9 -28
6 -20 -3 -34 0 -40 9 -15 24 -10 29 31 29 32 0 40 4 40 18 0 41 -54 57 -83 24z
m58 -12 c4 -6 -5 -10 -19 -10 -14 0 -26 5 -26 10 0 6 9 10 19 10 11 0 23 -4
26 -10z"/>
</g>
</svg>
